<svg width="1092" height="293" viewBox="0 0 1092 293" fill="none" xmlns="http://www.w3.org/2000/svg">
<path d="M331.693 74.4138C324.62 74.4138 319.198 76.5385 315.426 80.5518C311.654 84.8011 310.004 90.703 310.004 98.7295V123.045H333.107V140.515H310.004V227.626H289.966V140.515H274.878L278.179 123.045H289.966V97.5491C289.966 84.3289 293.502 74.1777 300.81 66.8594C308.118 59.7772 318.255 56 331.457 56H334.286V74.4138H331.693Z" fill="white"/>
<path d="M561.13 123.045V109.085L580.933 97.6358V123.045H610.637V140.515H580.933V195.52C580.933 200.714 582.111 204.727 584.705 207.56C587.298 210.393 591.07 211.573 595.785 211.573C598.142 211.573 600.5 211.337 603.329 210.629C606.157 210.157 608.515 209.212 610.637 208.268V225.974C608.279 226.918 605.686 227.862 602.621 228.57C599.321 229.279 596.02 229.515 592.72 229.515C582.819 229.515 575.275 226.682 569.617 221.016C563.959 215.35 561.13 207.324 561.13 197.173V140.515H545.335L548.636 123.045H561.13Z" fill="white"/>
<path d="M356.182 124.698V227.626H375.984V121.157L356.182 124.698Z" fill="white"/>
<path d="M366.083 96.8409C362.311 96.8409 359.011 95.6605 356.417 93.0637C353.824 90.4669 352.645 87.1618 352.645 83.3847C352.645 79.8435 353.824 76.7746 356.417 74.1777C359.011 71.5809 362.311 70.1645 366.083 70.1645C369.855 70.1645 372.92 71.5809 375.513 74.1777C378.106 76.7746 379.52 79.8435 379.52 83.3847C379.52 87.1618 378.106 90.4669 375.513 93.0637C372.92 95.6605 369.855 96.8409 366.083 96.8409Z" fill="white"/>
<path d="M418.931 138.626C426.004 127.058 438.027 121.157 454.764 121.157V140.515C431.426 140.515 419.874 151.846 419.874 174.509V227.626H400.072V124.462L418.931 121.393V138.626Z" fill="white"/>
<path d="M498.686 230.223C493.029 230.223 487.135 229.279 481.477 227.39C475.583 225.501 470.161 222.905 465.211 219.6L468.275 202.602C473.697 206.379 478.884 208.976 483.599 210.865C488.314 212.753 493.264 213.462 498.215 213.462C503.166 213.462 507.173 212.281 510.238 209.448C513.067 206.852 514.717 203.31 514.717 198.589C514.717 195.048 513.303 191.979 510.945 189.382C508.352 187.021 503.637 184.661 497.036 182.536L492.557 181.119C484.542 178.287 478.412 174.273 474.169 168.844C469.925 163.65 467.804 157.276 467.804 149.958C467.804 144.528 468.982 139.57 471.811 135.085C474.64 130.6 478.412 127.058 483.363 124.462C488.314 121.865 493.971 120.448 500.337 120.448C505.052 120.448 509.766 121.157 514.953 122.573C519.904 123.989 524.854 126.114 529.569 128.475L526.269 145.472C521.789 142.639 517.31 140.515 512.831 139.098C508.116 137.682 504.109 136.974 500.808 136.974C496.093 136.974 492.321 138.154 489.728 140.515C487.135 142.875 485.956 145.944 485.956 149.722C485.956 153.027 486.899 155.623 489.257 157.984C491.614 160.345 495.857 162.47 501.987 164.594L506.23 166.011C515.189 169.08 522.025 173.329 526.74 178.759C531.455 184.188 533.812 190.799 533.812 198.353C533.812 204.491 532.162 210.157 529.333 214.878C526.504 219.836 522.261 223.613 517.075 226.21C511.652 229.043 505.523 230.223 498.686 230.223Z" fill="white"/>
<path fill-rule="evenodd" clip-rule="evenodd" d="M837.75 227.626H819.598L818.89 220.78C815.354 223.849 811.346 226.21 806.867 227.862C802.388 229.515 797.673 230.223 792.723 230.223C785.414 230.223 778.814 228.57 772.92 225.265C766.791 221.96 762.076 217.239 758.775 211.337C755.239 205.671 753.589 199.061 753.589 191.979C753.589 185.133 755.239 178.759 758.775 172.857C762.076 167.191 766.791 162.47 772.92 159.165C778.814 155.86 785.414 153.971 792.958 153.971C802.152 153.971 810.404 157.04 817.476 162.706V157.04C817.476 150.43 815.59 145.472 812.289 142.167C808.989 138.862 803.095 137.21 795.08 137.21C787.065 137.21 778.578 138.862 769.619 141.931L772.92 124.698C780.935 122.337 788.715 120.921 796.73 120.921C809.696 120.921 819.598 123.989 826.434 129.891C833.271 136.029 836.807 144.528 836.807 155.387V207.796L837.75 227.626ZM795.551 214.17C799.795 214.17 803.567 213.226 807.339 211.337C810.875 209.448 813.704 206.616 815.826 203.311C817.712 200.005 818.89 196.228 818.89 191.979C818.89 187.73 817.712 183.952 815.826 180.647C813.704 177.342 810.875 174.509 807.339 172.621C803.567 170.732 799.795 169.552 795.551 169.552C791.308 169.552 787.3 170.732 783.764 172.621C780.228 174.509 777.399 177.342 775.513 180.647C773.391 183.952 772.448 187.73 772.448 191.979C772.448 196.228 773.391 200.005 775.513 203.311C777.399 206.616 780.228 209.448 783.764 211.337C787.3 213.226 791.308 214.17 795.551 214.17Z" fill="white"/>
<path d="M889.962 230.223C884.305 230.223 878.411 229.279 872.753 227.39C866.859 225.501 861.437 222.905 856.487 219.6L859.551 202.602C864.973 206.379 870.16 208.976 874.875 210.865C879.59 212.753 884.54 213.462 889.491 213.462C894.442 213.462 898.449 212.281 901.514 209.448C904.343 206.852 905.993 203.31 905.993 198.589C905.993 195.048 904.579 191.979 902.221 189.382C899.628 187.021 894.913 184.661 888.312 182.536L883.833 181.119C875.818 178.287 869.688 174.273 865.445 168.844C861.201 163.65 859.08 157.276 859.08 149.958C859.08 144.528 860.258 139.57 863.087 135.085C865.916 130.6 869.688 127.058 874.639 124.462C879.59 121.865 885.247 120.448 891.613 120.448C896.328 120.448 901.042 121.157 906.229 122.573C911.18 123.989 916.13 126.114 920.845 128.475L917.545 145.472C913.065 142.639 908.586 140.515 904.107 139.098C899.392 137.682 895.385 136.974 892.084 136.974C887.369 136.974 883.597 138.154 881.004 140.515C878.411 142.875 877.232 145.944 877.232 149.722C877.232 153.027 878.175 155.623 880.533 157.984C882.89 160.345 887.133 162.47 893.263 164.594L897.506 166.011C906.465 169.08 913.301 173.329 918.016 178.759C922.731 184.188 925.088 190.799 925.088 198.353C925.088 204.491 923.438 210.157 920.609 214.878C917.78 219.836 913.537 223.613 908.351 226.21C902.928 229.043 896.799 230.223 889.962 230.223Z" fill="white"/>
<path fill-rule="evenodd" clip-rule="evenodd" d="M992.965 212.99C1007.58 212.99 1020.55 206.852 1032.1 194.104L1039.17 211.101C1032.57 217.239 1025.26 221.96 1017.48 225.265C1009.47 228.57 1001.22 230.223 992.729 230.223C982.121 230.223 972.455 227.862 963.968 223.141C955.481 218.419 948.645 211.809 943.93 203.311C939.215 194.812 936.857 185.605 936.857 175.454C936.857 165.302 939.215 156.096 944.166 147.597C948.881 139.334 955.481 132.724 963.968 127.767C972.455 123.045 981.649 120.448 992.022 120.448C1000.51 120.448 1008.52 122.337 1015.6 125.878C1022.67 129.655 1028.56 134.849 1033.28 141.459C1037.99 148.305 1040.82 156.096 1042 165.066L959.018 191.979C961.847 198.589 966.09 203.547 972.219 207.324C978.113 211.101 984.95 212.99 992.965 212.99ZM992.022 137.446C985.185 137.446 979.056 139.334 973.398 142.639C967.74 145.944 963.497 150.666 960.196 156.332C956.896 162.234 955.481 168.608 955.481 175.69L1020.08 154.679C1017.72 149.486 1014.18 145.236 1009.23 142.167C1004.04 139.098 998.387 137.446 992.022 137.446Z" fill="white"/>
<path fill-rule="evenodd" clip-rule="evenodd" d="M50 153.37C50 153.582 50.0008 153.795 50.0024 154.007H50V236.902H132.779V236.899C132.991 236.9 133.203 236.901 133.415 236.901C179.484 236.901 216.83 199.503 216.83 153.37C216.83 107.236 179.484 69.838 133.415 69.838C87.3462 69.838 50 107.236 50 153.37ZM133.415 216.864C168.433 216.864 196.821 188.437 196.821 153.37C196.821 118.302 168.433 89.8749 133.415 89.8749C98.3969 89.8749 70.009 118.302 70.009 153.37C70.009 153.582 70.0101 153.795 70.0122 154.007H132.779V216.861C132.991 216.863 133.203 216.864 133.415 216.864Z" fill="white"/>
<path fill-rule="evenodd" clip-rule="evenodd" d="M629.023 175.66V69.5007L648.826 63.0664V139.069C653.305 133.639 658.727 129.39 665.328 126.321C671.929 123.488 679.002 121.835 686.781 121.835C696.682 121.835 705.641 124.196 714.128 128.917C722.379 133.639 728.979 140.249 733.694 148.512C738.409 157.01 741.003 166.217 741.003 176.368C741.003 186.756 738.409 196.199 733.459 204.697C728.508 213.196 721.671 219.806 713.185 224.528C704.462 229.249 694.796 231.61 684.424 231.61C673.815 231.61 664.385 229.249 655.898 224.528C647.412 219.806 640.811 213.196 636.096 204.697C631.381 196.199 629.023 186.52 629.023 175.66ZM703.048 208.947C697.39 212.252 691.26 213.668 684.659 213.668C677.823 213.668 671.693 212.252 666.271 208.947C660.613 205.642 656.37 201.392 653.305 195.727C650.005 190.061 648.59 183.923 648.59 177.077C648.59 170.231 650.005 163.857 653.305 158.191C656.606 152.525 660.849 148.04 666.507 144.734C672.165 141.429 678.294 139.777 685.131 139.777C691.732 139.777 697.861 141.429 703.519 144.734C708.941 148.04 713.185 152.289 716.485 157.955C719.55 163.62 721.2 169.758 721.2 176.605C721.2 183.687 719.55 189.825 716.249 195.49C712.949 201.156 708.705 205.642 703.048 208.947Z" fill="white"/>
</svg>
