<?xml version="1.0" encoding="UTF-8" standalone="no"?>
<svg xmlns="http://www.w3.org/2000/svg" xmlns:xlink="http://www.w3.org/1999/xlink" xmlns:serif="http://www.serif.com/" width="100%" height="100%" viewBox="0 0 1521 296" version="1.1" xml:space="preserve" style="fill-rule:evenodd;clip-rule:evenodd;stroke-linejoin:round;stroke-miterlimit:2;">
    <g transform="matrix(4.16667,0,0,4.16667,0,0)">
        <path d="M23.097,13.929C10.572,13.929 0.419,22.697 0.419,35.189C0.419,47.681 10.572,56.449 23.097,56.449C35.621,56.449 45.774,47.681 45.774,35.189C45.774,22.697 35.621,13.929 23.097,13.929ZM157.99,68.051C161.869,69.918 167.894,70.402 170.237,70.402C182.035,70.402 188.68,63.443 188.68,54.21L188.68,24.667L182.611,24.667L181.742,29.587C178.967,26.078 174.623,24.066 169.26,24.066C161.096,24.066 153.122,30.744 153.122,40.258C153.122,49.771 161.096,56.449 169.26,56.449C173.702,56.449 177.445,55.068 180.176,52.601L180.176,54.477C180.176,59.361 176.595,63.414 170.275,63.414C167.074,63.414 163.29,62.975 159.159,61.419L157.99,68.051ZM212.369,56.449C214.604,56.449 220.35,56.049 224.654,54.098L223.482,47.449C217.85,49.527 214.702,49.462 212.369,49.462C208.427,49.462 203.896,47.54 202.856,43.092L228.268,43.092C228.425,42.18 228.506,41.234 228.506,40.258C228.506,39.281 228.425,38.335 228.268,37.423C226.9,29.444 219.795,24.066 211.235,24.066C201.83,24.066 193.964,30.624 193.964,40.258C193.964,51.559 203.028,56.449 212.369,56.449ZM202.856,37.423C203.834,33.225 207.293,31.053 211.235,31.053C215.177,31.053 218.855,33.163 219.615,37.423L202.856,37.423ZM170.831,49.462C175.915,49.462 180.035,45.341 180.035,40.258C180.035,35.174 175.915,31.053 170.831,31.053C165.747,31.053 161.626,35.174 161.626,40.258C161.626,45.341 165.747,49.462 170.831,49.462ZM123.171,30.432L123.172,30.432C125.424,26.717 129.615,24.066 134.988,24.066C145.036,24.066 148.505,31.244 148.505,37.852L148.505,55.848L140.001,55.848L140.001,38.244C139.992,34.234 138.454,30.992 133.854,30.992C128.003,30.992 124.6,35.124 124.588,40.228L124.588,55.848L116.085,55.848L116.085,24.667L122.154,24.667L123.171,30.432ZM88.925,24.066C80.762,24.066 72.788,30.744 72.788,40.258C72.788,49.771 80.762,56.449 88.925,56.449C94.294,56.449 98.642,54.432 101.417,50.917L102.276,55.788L108.345,55.788L108.345,24.667L102.276,24.667L101.408,29.587C98.633,26.078 94.289,24.066 88.925,24.066ZM90.497,49.462C95.58,49.462 99.701,45.341 99.701,40.258C99.701,35.174 95.58,31.053 90.497,31.053C85.413,31.053 81.292,35.174 81.292,40.258C81.292,45.341 85.413,49.462 90.497,49.462ZM58.19,30.432L58.191,30.432C60.442,26.717 64.578,24.066 70.857,24.066L70.857,30.992C62.536,30.992 59.618,35.124 59.607,40.228L59.607,55.848L51.103,55.848L51.103,24.667L57.173,24.667L58.19,30.432ZM23.097,21.583C15.582,21.583 9.49,27.675 9.49,35.189C9.49,42.704 15.582,48.795 23.097,48.795C30.611,48.795 36.703,42.704 36.703,35.189C36.703,27.675 30.611,21.583 23.097,21.583Z" style="fill:rgb(242,102,65);"></path>
        <path d="M32.167,0.323C27.158,0.323 23.097,4.384 23.097,9.394L32.167,9.394C37.178,9.394 41.238,5.333 41.238,0.323L32.167,0.323Z" style="fill:rgb(242,102,65);"></path>
        <path d="M234.833,14.53L240.502,14.53L240.502,32.921L264.94,32.921L264.94,14.53L270.61,14.53L270.61,55.848L264.94,55.848L264.94,37.457L240.502,37.457L240.502,55.848L234.833,55.848L234.833,14.53ZM364.994,55.153C362.855,56.182 359.25,56.449 357.959,56.449C351.892,56.449 348.075,53.769 348.075,47.523L348.075,17.643L353.744,17.643L353.744,26.141L364.994,26.141L364.994,30.676L353.744,30.676L353.744,47.386C353.744,51.079 356.113,51.913 358.221,51.913C359.928,51.913 362.254,51.552 364.235,50.849L364.994,55.152L364.994,55.153ZM337.293,47.078C337.293,49.435 335.5,51.913 329.093,51.913C326.079,51.913 321.422,51.282 316.874,49.319L316.112,53.638C320.322,55.666 326.14,56.449 329.093,56.449C338.631,56.449 342.962,52.253 342.962,47.078C342.962,33.436 320.326,40.247 320.326,33.154C320.326,30.796 321.835,28.601 328.242,28.601C330.984,28.601 334.846,29.029 338.582,30.474L339.346,26.142L339.346,26.141C335.651,24.645 330.938,24.066 328.242,24.066C318.704,24.066 314.656,27.978 314.656,33.154C314.656,45.796 337.293,39.126 337.293,47.078ZM293.379,24.066C283.84,24.066 276.108,30.744 276.108,40.258C276.108,49.771 283.84,56.449 293.379,56.449C302.918,56.449 310.65,49.771 310.65,40.258C310.65,30.744 302.918,24.066 293.379,24.066ZM293.379,51.913C293.279,51.913 293.179,51.913 293.08,51.91L293.08,51.909C286.812,51.75 281.778,46.594 281.778,40.258C281.778,33.92 286.812,28.765 293.08,28.605C293.179,28.602 293.279,28.601 293.379,28.601C293.479,28.601 293.58,28.602 293.678,28.605C299.947,28.765 304.981,33.92 304.981,40.258C304.981,46.594 299.947,51.75 293.678,51.909L293.678,51.91C293.58,51.913 293.479,51.913 293.379,51.913Z" style="fill:rgb(45,60,64);"></path>
    </g>
</svg>
