<?xml version="1.0" encoding="UTF-8"?>
<svg id="Layer_2" data-name="Layer 2" xmlns="http://www.w3.org/2000/svg" viewBox="0 0 1163.16 309.02">
  <defs>
    <style>
      .cls-1 {
        fill: #231f20;
      }

      .cls-2 {
        fill: #1b2d42;
      }
    </style>
  </defs>
  <g id="Layer_1-2" data-name="Layer 1">
    <g>
      <g>
        <polygon class="cls-2" points="595.41 34.99 595.41 2.4 455.46 2.4 455.46 185.54 595.41 185.54 595.41 152.95 487.65 152.95 487.65 110.37 569.82 110.37 569.82 77.78 487.65 77.78 487.65 34.99 595.41 34.99"/>
        <rect class="cls-2" x="191.14" y="2.4" width="31.79" height="182.94"/>
        <polygon class="cls-2" points="421.27 2.4 257.12 2.4 257.12 34.99 323.1 34.99 323.1 185.54 323.1 185.54 355.29 185.54 355.29 185.54 355.29 34.99 421.27 34.99 421.27 2.4"/>
        <path class="cls-2" d="m122.16,45.59l18.59-26.59S116.36,0,78.78,0C34.19,0,4.4,24.19,4.4,54.78c0,67.18,108.77,46.99,108.77,80.17,0,12.6-11.2,21.19-37.59,21.19-32.79,0-57.78-22.99-57.78-22.99L0,159.15s26.59,29.19,76.58,29.19c43.99,0,71.78-25.19,71.78-54.58,0-65.38-108.77-45.99-108.77-80.57,0-12.6,14-21.19,36.19-21.19,25.59.2,46.39,13.6,46.39,13.6Z"/>
        <g>
          <polygon class="cls-2" points="1163.16 2.4 999.01 2.4 999.01 34.99 1064.99 34.99 1064.99 185.54 1064.99 185.54 1097.18 185.54 1097.18 185.54 1097.18 34.99 1163.16 34.99 1163.16 2.4"/>
          <polygon class="cls-2" points="964.82 34.99 964.82 2.4 824.86 2.4 824.86 185.54 964.82 185.54 964.82 152.95 857.05 152.95 857.05 110.37 939.23 110.37 939.23 77.78 857.05 77.78 857.05 34.99 964.82 34.99"/>
          <path class="cls-2" d="m773.88,2.4h-122.76v32.59h90.37v79.38c0,25.59-10.8,41.79-44.19,41.79-27.19,0-50.58-22.99-50.58-22.99l-17.79,25.99s28.59,29.19,70.98,29.19c46.59,0,73.58-26.19,73.58-69.58l.4-116.36h0Z"/>
        </g>
      </g>
      <g>
        <g>
          <path class="cls-1" d="m796.64,277.19c-1.03-1.03-2.36-1.65-3.8-1.8-.21-.02-.42-.03-.63-.03-.22,0-.42,0-.63.03-1.44.15-2.77.78-3.79,1.81-2.44,2.44-2.43,6.42,0,8.85,1.18,1.18,2.76,1.83,4.43,1.83s3.24-.66,4.42-1.84c2.44-2.44,2.43-6.42,0-8.85"/>
          <path class="cls-1" d="m831.77,248.23c0-1.6-.61-3.2-1.84-4.42-1.18-1.18-2.76-1.83-4.42-1.83s-3.24.66-4.42,1.84c-.58.58-1.02,1.25-1.33,1.97-.33.78-.5,1.62-.5,2.46,0,1.6.61,3.21,1.84,4.43,1.13,1.13,2.61,1.77,4.2,1.82.07,0,.14,0,.22,0,.07,0,.15,0,.22,0,1.59-.05,3.07-.7,4.2-1.83,1.22-1.23,1.83-2.83,1.83-4.43"/>
          <path class="cls-1" d="m829.98,286.03c2.6-2.6,2.34-7.02-.53-9.31-.7-.56-1.51-.97-2.38-1.19-.78-.19-1.59-.17-2.38-.24-1.92-.15-3.74-.8-5.3-1.93-1.61-1.18-2.87-2.81-3.59-4.67-.34-.89-.55-1.81-.63-2.77-.07-.79-.05-1.6-.23-2.39-.3-1.28-.99-2.45-1.99-3.31-1.19-1.04-2.64-1.49-4.19-1.55-1.9-.07-3.71-.51-5.35-1.5-1.62-.99-2.96-2.42-3.85-4.11-.45-.88-.78-1.83-.97-2.81-.15-.8-.14-1.63-.21-2.44-.13-1.71-.97-3.36-2.32-4.42-2.93-2.3-7.32-1.57-9.27,1.63-1.93,3.16-.58,7.44,2.78,8.96,1.68.76,3.55.44,5.31.91,1.84.5,3.53,1.5,4.85,2.89,1.31,1.39,2.23,3.14,2.62,5.01.35,1.64.1,3.31.85,4.86.3.63.71,1.22,1.21,1.72.65.66,1.47,1.16,2.34,1.46,1.09.39,2.18.31,3.31.44,2.51.29,4.88,1.51,6.56,3.39,1.68,1.88,2.61,4.33,2.65,6.85.03,2.43,1.34,4.68,3.56,5.73,2.38,1.13,5.28.65,7.13-1.22"/>
          <path class="cls-1" d="m830.45,269.11c2.14-2.14,2.43-5.67.63-8.11-.82-1.12-2-1.95-3.35-2.34-1.38-.39-2.85-.19-4.26-.53-3.14-.79-5.79-3.05-7.06-6.03-.6-1.44-.74-2.87-.83-4.41-.08-1.5-.71-2.91-1.73-4-2-2.14-5.38-2.5-7.84-.97-2.56,1.59-3.6,4.88-2.48,7.67.55,1.36,1.6,2.49,2.88,3.18.66.35,1.38.58,2.12.68.76.1,1.53.04,2.29.15,3.18.45,6.04,2.4,7.61,5.21.75,1.33,1.19,2.82,1.31,4.34.06.81.03,1.59.24,2.38.19.69.49,1.36.9,1.93,1.7,2.41,4.91,3.38,7.64,2.19.72-.32,1.38-.77,1.94-1.32"/>
          <polygon class="cls-1" points="420.17 243.98 432.74 243.95 440.87 274.2 450.17 243.92 460.32 243.9 470.18 274.23 478.27 243.87 490.67 243.84 476.1 288.01 465.18 288.03 455.15 258.91 445.67 288.07 434.91 288.09 420.17 243.98"/>
          <path class="cls-1" d="m523.23,261.12c-.29-3.06-1.3-5.41-3-7.05-1.71-1.65-3.98-2.47-6.81-2.46-2.77,0-5.06.83-6.85,2.48-1.79,1.65-2.94,4.01-3.45,7.07l20.12-.04Zm-6.28,28.2c-5.14,0-9.64-.91-13.49-2.75-3.85-1.85-6.85-4.54-8.99-8.09-2.14-3.55-3.22-7.72-3.24-12.52,0-4.45.92-8.46,2.75-12.02,1.85-3.55,4.48-6.36,7.88-8.43,3.4-2.05,7.36-3.09,11.87-3.1,4.17,0,7.82.86,10.98,2.62,3.16,1.76,5.62,4.28,7.38,7.58,1.77,3.29,2.66,7.19,2.67,11.7,0,1.9-.14,3.64-.43,5.21l-31.13.05c1.51,6.59,6.52,9.88,15.02,9.86,2.66,0,5.24-.28,7.76-.84,2.51-.55,4.78-1.35,6.81-2.39l1.23,9.45c-2.08,1.16-4.62,2.06-7.63,2.7-3,.64-6.16.97-9.45.97"/>
          <path class="cls-1" d="m565.33,278.47c3.47,0,6.29-1.2,8.45-3.57,2.16-2.38,3.24-5.41,3.23-9.11s-1.11-6.82-3.31-9.19c-2.2-2.37-5.01-3.54-8.42-3.53-3.42,0-6.22,1.2-8.41,3.57-2.19,2.37-3.29,5.44-3.28,9.2,0,3.7,1.09,6.73,3.27,9.1,2.17,2.37,4.99,3.54,8.46,3.54m2.71,10.75c-3.07,0-5.82-.61-8.28-1.85-2.46-1.24-4.39-2.98-5.78-5.23l-.17,5.73-11.53.02-.13-70.25,12.05-.02.06,31.31c3.18-4.4,7.94-6.61,14.3-6.62,3.87,0,7.36.94,10.45,2.84,3.1,1.91,5.55,4.64,7.35,8.18,1.8,3.56,2.7,7.64,2.71,12.27.01,4.28-.86,8.19-2.62,11.75-1.76,3.56-4.25,6.43-7.49,8.61-3.23,2.17-6.88,3.26-10.92,3.27"/>
          <path class="cls-1" d="m617.76,278.37c3.47,0,6.29-1.2,8.45-3.58,2.16-2.37,3.24-5.4,3.23-9.1s-1.11-6.83-3.31-9.19c-2.2-2.37-5.01-3.54-8.42-3.54-3.42.01-6.22,1.2-8.41,3.58-2.19,2.37-3.28,5.44-3.28,9.2s1.09,6.73,3.27,9.1c2.17,2.37,4.99,3.54,8.46,3.54m-23.14-34.73l11.53-.02.19,5.73c2.99-4.75,7.88-7.13,14.64-7.14,3.88,0,7.36.94,10.46,2.84,3.09,1.9,5.54,4.63,7.34,8.18,1.8,3.55,2.7,7.64,2.71,12.27.01,4.27-.86,8.19-2.62,11.75-1.76,3.56-4.25,6.43-7.49,8.6-3.23,2.18-6.88,3.27-10.92,3.28-2.94,0-5.61-.56-7.98-1.68-2.37-1.12-4.28-2.73-5.73-4.8l.06,26.36-12.06.02-.13-65.39Z"/>
          <path class="cls-1" d="m647.44,243.53l11.63-.02.1,7.28c1.21-2.6,2.83-4.6,4.88-6,2.05-1.39,4.44-2.09,7.16-2.1,1.85,0,3.55.31,5.12.95l-1.03,11.36c-1.79-.69-3.59-1.04-5.37-1.03-3.29.01-5.86,1.2-7.67,3.58-1.82,2.37-2.72,5.69-2.71,9.97l.03,20.12-12.05.02-.08-44.14Z"/>
          <path class="cls-1" d="m701.71,278.2c3.41,0,6.22-1.2,8.41-3.57,2.19-2.37,3.28-5.44,3.28-9.2s-1.1-6.74-3.27-9.1c-2.17-2.36-4.99-3.54-8.46-3.53-3.47,0-6.29,1.2-8.45,3.57-2.16,2.37-3.24,5.41-3.23,9.11,0,3.76,1.11,6.82,3.31,9.18,2.2,2.38,5.01,3.55,8.42,3.54m.02,10.76c-4.33.01-8.32-.97-11.93-2.93-3.61-1.95-6.5-4.72-8.64-8.31-2.15-3.58-3.22-7.65-3.24-12.22,0-4.22.99-8.11,2.96-11.67,2-3.56,4.81-6.42,8.45-8.56,3.64-2.14,7.74-3.22,12.31-3.23,4.33-.01,8.31.95,11.93,2.88,3.61,1.93,6.5,4.69,8.64,8.27,2.14,3.58,3.22,7.65,3.23,12.22.01,4.27-.98,8.19-2.96,11.75-1.99,3.56-4.8,6.41-8.44,8.56-3.64,2.14-7.75,3.22-12.31,3.23"/>
          <path class="cls-1" d="m746.39,288.87c-3.36,0-6.54-.38-9.54-1.15-3.01-.77-5.32-1.79-6.94-3.07l1.45-9.81c1.97,1.33,4.27,2.39,6.9,3.2,2.63.81,5.16,1.2,7.59,1.2,4.92,0,7.37-1.26,7.36-3.74,0-1.33-.52-2.34-1.56-3.03-1.05-.69-3.22-1.5-6.51-2.42-5.21-1.44-8.93-3.27-11.15-5.48-2.23-2.23-3.35-5.21-3.36-8.97-.01-4.22,1.58-7.55,4.75-9.99,3.18-2.43,7.54-3.66,13.09-3.67,2.71,0,5.44.31,8.15.94,2.72.63,4.95,1.47,6.69,2.5l-1.37,9.54c-1.8-1.04-3.87-1.85-6.2-2.46-2.34-.61-4.59-.9-6.72-.9-4.22.01-6.33,1.14-6.33,3.4,0,1.27.51,2.26,1.53,2.98,1.01.72,3.02,1.51,6.03,2.37,5.56,1.61,9.47,3.51,11.77,5.7,2.28,2.19,3.43,5.23,3.45,9.1,0,4.27-1.68,7.63-5.06,10.07-3.37,2.43-8.04,3.66-13.99,3.67"/>
          <path class="cls-1" d="m774.44,241.88h.83c.48,0,.82-.08,1.03-.23.2-.15.31-.4.31-.76,0-.63-.43-.94-1.3-.94h-.86s0,1.93,0,1.93Zm-1.07-2.88h2.02c.73,0,1.3.16,1.72.5.41.33.63.8.63,1.39,0,.84-.35,1.41-1.06,1.73l1.48,2.37h-1.24s-1.31-2.16-1.31-2.16h-1.15s0,2.17,0,2.17h-1.07s0-5.99,0-5.99Zm2.11,8.3c.91,0,1.74-.22,2.52-.66.77-.43,1.39-1.05,1.87-1.83.47-.79.71-1.68.71-2.67,0-.93-.22-1.79-.65-2.56-.43-.78-1.05-1.41-1.83-1.88-.78-.47-1.66-.71-2.63-.71-.91,0-1.75.22-2.52.65-.77.44-1.39,1.05-1.87,1.84-.47.79-.71,1.68-.71,2.67,0,.92.22,1.78.65,2.56.43.78,1.05,1.41,1.83,1.88.78.47,1.66.71,2.63.71m0,1.09c-1.11,0-2.13-.26-3.08-.8-.95-.53-1.72-1.28-2.3-2.23-.58-.96-.87-2.03-.88-3.21,0-1.13.26-2.16.78-3.1.52-.94,1.27-1.7,2.23-2.28.97-.58,2.04-.87,3.23-.88,1.13,0,2.17.26,3.11.79.95.54,1.72,1.28,2.29,2.24.56.96.86,2.03.86,3.21,0,1.1-.26,2.13-.8,3.08-.53.95-1.28,1.72-2.23,2.3-.96.58-2.03.87-3.21.88"/>
        </g>
        <g>
          <path class="cls-1" d="m887.07,287.68h-6.86s-.07-60.98-.07-60.98h6.86s.03,23.49.03,23.49c3.83-5.18,8.8-7.78,14.89-7.79s10.52,2.11,14.18,6.34c3.66,4.23,5.5,9.85,5.51,16.86s-1.8,12.7-5.42,16.88c-3.62,4.18-8.36,6.27-14.21,6.28-6.16,0-11.13-2.55-14.91-7.66v6.58Zm-.01-11.98c1.22,1.95,3.07,3.59,5.54,4.93,2.47,1.34,5.02,2.01,7.64,2,4.39,0,7.86-1.59,10.42-4.77,2.56-3.17,3.83-7.26,3.83-12.26s-1.29-9.1-3.85-12.29c-2.56-3.2-6.04-4.79-10.43-4.79-2.62,0-5.17.69-7.63,2.07-2.47,1.37-4.31,3.07-5.53,5.08l.02,20.02Z"/>
          <path class="cls-1" d="m939.65,287.62h-6.86s-.05-44.15-.05-44.15h6.86s0,7.12,0,7.12c4.08-5.37,8.98-8.06,14.71-8.06v7.04c-.85-.18-1.76-.27-2.74-.27-2.07,0-4.33.74-6.76,2.2-2.44,1.46-4.17,3.08-5.21,4.85l.03,31.27Z"/>
          <path class="cls-1" d="m997.43,287.56h-6.86s0-5.02,0-5.02c-3.71,4.09-8.59,6.14-14.62,6.14-4.08,0-7.68-1.3-10.79-3.92-3.11-2.62-4.67-6.18-4.67-10.69s1.53-8.22,4.61-10.75c3.07-2.53,6.68-3.8,10.83-3.81,6.28,0,11.16,2,14.64,6.02v-7.95c-.01-2.93-1.05-5.21-3.13-6.85-2.07-1.64-4.76-2.46-8.05-2.46-5.18,0-9.69,2.05-13.52,6.14l-3.21-4.75c4.69-4.88,10.57-7.33,17.64-7.33,5.06,0,9.17,1.21,12.35,3.64,3.17,2.44,4.76,6.18,4.77,11.24l.03,30.35Zm-19.02-3.82c5.49,0,9.54-1.84,12.15-5.5v-8.32c-2.64-3.65-6.69-5.48-12.18-5.47-3.17,0-5.77.91-7.81,2.71-2.04,1.8-3.06,4.13-3.06,7s1.03,5.1,3.07,6.9c2.04,1.8,4.65,2.69,7.82,2.69Z"/>
          <path class="cls-1" d="m1047.81,287.5h-6.86s-.03-28.88-.03-28.88c0-3.72-.86-6.35-2.57-7.91-1.71-1.55-4.15-2.33-7.32-2.32-2.56,0-5.04.68-7.45,2.02-2.41,1.34-4.28,2.96-5.62,4.85l.04,32.28h-6.86s-.05-44.15-.05-44.15h6.86s0,6.39,0,6.39c1.7-2.01,3.99-3.77,6.85-5.26,2.86-1.5,5.82-2.25,8.87-2.25,9.39-.01,14.09,4.74,14.1,14.25l.03,31Z"/>
          <path class="cls-1" d="m1100.38,287.44h-6.86s0-6.58,0-6.58c-3.77,5.12-8.74,7.69-14.89,7.7s-10.59-2.08-14.22-6.25c-3.63-4.17-5.45-9.79-5.46-16.86s1.8-12.63,5.42-16.87c3.62-4.24,8.36-6.36,14.21-6.37s11.07,2.58,14.91,7.75l-.03-23.5h6.86s.07,60.98.07,60.98Zm-20.12-5.01c2.68,0,5.24-.68,7.68-2.02,2.44-1.34,4.29-2.99,5.57-4.94l-.02-20.02c-1.28-2.01-3.16-3.7-5.63-5.07-2.47-1.37-5.02-2.05-7.64-2.05-4.33,0-7.77,1.61-10.33,4.81-2.56,3.2-3.83,7.3-3.83,12.3s1.29,9.08,3.85,12.25c2.56,3.17,6.01,4.75,10.34,4.74Z"/>
        </g>
        <path class="cls-1" d="m382.55,287.42h-6.51s0-4.77,0-4.77c-3.53,3.88-8.15,5.83-13.88,5.83-3.88,0-7.29-1.24-10.25-3.72-2.95-2.48-4.43-5.87-4.44-10.15s1.45-7.8,4.37-10.21c2.92-2.4,6.35-3.61,10.28-3.61,5.96,0,10.59,1.9,13.9,5.71v-7.55c-.01-2.78-1-4.95-2.97-6.51-1.97-1.56-4.52-2.34-7.64-2.34-4.92,0-9.2,1.95-12.84,5.83l-3.04-4.51c4.45-4.63,10.03-6.96,16.75-6.96,4.8,0,8.71,1.15,11.72,3.46,3.01,2.31,4.52,5.87,4.53,10.67l.03,28.82Zm-18.06-3.63c5.21,0,9.05-1.75,11.54-5.22v-7.9c-2.5-3.47-6.35-5.2-11.56-5.2-3.01,0-5.48.86-7.42,2.57-1.94,1.71-2.9,3.92-2.9,6.64s.97,4.85,2.92,6.55c1.94,1.7,4.41,2.56,7.42,2.55Z"/>
      </g>
    </g>
  </g>
</svg>